<svg xmlns="http://www.w3.org/2000/svg" width="1600" height="900" viewBox="0 0 1600 900" role="img" aria-label="GOV.UK UI mockup">
<defs>
  <linearGradient id="bg" x1="0" y1="0" x2="1" y2="1"><stop offset="0" stop-color="#0b0c0c"/><stop offset="1" stop-color="#212222"/></linearGradient>
  <pattern id="dots" width="34" height="34" patternUnits="userSpaceOnUse"><circle cx="2" cy="2" r="1.6" fill="#ffffff" opacity="0.08"/></pattern>
  <filter id="sh" x="-20%" y="-20%" width="140%" height="140%"><feDropShadow dx="0" dy="24" stdDeviation="30" flood-color="#000" flood-opacity="0.30"/></filter>
</defs>
<rect x="0" y="0" width="1600" height="900" rx="0" fill="url(#bg)" /><rect x="0" y="0" width="1600" height="900" rx="0" fill="url(#dots)" />
<text x="90" y="372" font-family="Inter,Arial,sans-serif" font-size="30" font-weight="600" letter-spacing="3" fill="#1d70b8">PUBLIC SECTOR · FORMS</text>
<text x="86" y="470" font-family="Inter,Arial,sans-serif" font-size="120" font-weight="800" fill="#ffffff">GOV.UK</text>
<rect x="90" y="520" width="360" height="12" rx="6" fill="#ffffff" /><rect x="90" y="548" width="250" height="12" rx="6" fill="#1d70b8" />
<g filter="url(#sh)"><rect x="824" y="118" width="700" height="664" rx="18" fill="#ffffff" /></g><rect x="824" y="118" width="700" height="46" rx="18" fill="#f0ede8" /><rect x="824" y="146" width="700" height="18" rx="0" fill="#f0ede8" /><circle cx="850" cy="141" r="6" fill="#ff5f57"/><circle cx="870" cy="141" r="6" fill="#febc2e"/><circle cx="890" cy="141" r="6" fill="#28c840"/><rect x="944" y="133" width="550" height="16" rx="8" fill="#e4ded6" /><g transform="translate(824,164)"><rect x="34" y="34" width="562" height="28" rx="8" fill="#d6cfc4" /><rect x="34" y="104" width="130" height="14" rx="6" fill="#e4ded6" /><rect x="34" y="126" width="632" height="50" rx="10" fill="#f2efea" /><rect x="34" y="184" width="130" height="14" rx="6" fill="#e4ded6" /><rect x="34" y="206" width="632" height="50" rx="10" fill="#f2efea" /><rect x="34" y="264" width="130" height="14" rx="6" fill="#e4ded6" /><rect x="34" y="286" width="632" height="50" rx="10" fill="#f2efea" /><rect x="34" y="350" width="190" height="52" rx="12" fill="#1d70b8" /></g>
</svg>