<svg xmlns="http://www.w3.org/2000/svg" width="1200" height="800" viewBox="0 0 1200 800" role="img" aria-label="Stripe UI mockup">
<defs>
  <linearGradient id="bg" x1="0" y1="0" x2="1" y2="1"><stop offset="0" stop-color="#0f1338"/><stop offset="1" stop-color="#25294e"/></linearGradient>
  <pattern id="dots" width="34" height="34" patternUnits="userSpaceOnUse"><circle cx="2" cy="2" r="1.6" fill="#ffffff" opacity="0.08"/></pattern>
  <filter id="sh" x="-20%" y="-20%" width="140%" height="140%"><feDropShadow dx="0" dy="24" stdDeviation="30" flood-color="#000" flood-opacity="0.30"/></filter>
</defs>
<rect x="0" y="0" width="1200" height="800" rx="0" fill="url(#bg)" /><rect x="0" y="0" width="1200" height="800" rx="0" fill="url(#dots)" />
<text x="240" y="96" font-family="Inter,Arial,sans-serif" font-size="46" font-weight="800" fill="#ffffff">Stripe</text>
<g filter="url(#sh)"><rect x="240" y="150" width="720" height="520" rx="18" fill="#ffffff" /></g><rect x="240" y="150" width="720" height="46" rx="18" fill="#f0ede8" /><rect x="240" y="178" width="720" height="18" rx="0" fill="#f0ede8" /><circle cx="266" cy="173" r="6" fill="#ff5f57"/><circle cx="286" cy="173" r="6" fill="#febc2e"/><circle cx="306" cy="173" r="6" fill="#28c840"/><rect x="360" y="165" width="570" height="16" rx="8" fill="#e4ded6" /><g transform="translate(240,196)"><rect x="34" y="34" width="582" height="28" rx="8" fill="#d6cfc4" /><rect x="34" y="104" width="130" height="14" rx="6" fill="#e4ded6" /><rect x="34" y="126" width="652" height="50" rx="10" fill="#f2efea" /><rect x="34" y="184" width="130" height="14" rx="6" fill="#e4ded6" /><rect x="34" y="206" width="652" height="50" rx="10" fill="#f2efea" /><rect x="34" y="264" width="130" height="14" rx="6" fill="#e4ded6" /><rect x="34" y="286" width="652" height="50" rx="10" fill="#f2efea" /><rect x="34" y="350" width="190" height="52" rx="12" fill="#635bff" /></g>
</svg>